<svg xmlns="http://www.w3.org/2000/svg" version="1.0" width="750.000000pt" height="326.000000pt" viewBox="0 0 750.000000 326.000000" preserveAspectRatio="xMidYMid meet">
<metadata fill="#fffcfc">
Created by potrace 1.15, written by Peter Selinger 2001-2017
</metadata>
<g transform="translate(0.000000,326.000000) scale(0.100000,-0.100000)" fill="#fffcfc" stroke="none">
<path d="M3296 2491 c-23 -26 -536 -1309 -536 -1342 0 -51 69 -79 103 -41 8 9 115 269 237 577 122 308 226 567 230 575 7 12 11 10 18 -10 109 -281 447 -1121 458 -1137 9 -15 24 -23 42 -23 33 0 45 8 61 38 11 20 -18 98 -254 690 -146 367 -273 673 -282 680 -24 18 -57 15 -77 -7z" fill="#fffcfc"/>
<path d="M5628 2498 c-20 -15 -540 -1312 -540 -1346 -1 -52 71 -83 104 -44 8 9 118 275 243 590 125 316 230 570 234 565 4 -4 108 -262 231 -573 122 -311 230 -573 238 -582 33 -39 102 -10 102 43 0 31 -510 1313 -533 1339 -19 23 -55 26 -79 8z" fill="#fffcfc"/>
<path d="M1430 2450 c-20 -20 -20 -33 -20 -673 0 -719 -2 -697 60 -697 36 0 57 21 65 63 3 18 5 314 3 658 -3 600 -4 628 -22 648 -24 26 -60 27 -86 1z" fill="#fffcfc"/>
<path d="M1659 2449 c-14 -14 -20 -30 -17 -47 5 -30 524 -782 569 -824 36 -34 53 -35 84 -3 l25 24 0 406 c0 404 -2 436 -34 457 -20 14 -56 8 -76 -12 -19 -19 -20 -33 -20 -326 l0 -306 -211 303 c-116 167 -222 314 -236 327 -30 28 -57 28 -84 1z" fill="#fffcfc"/>
<path d="M2461 2444 c-21 -26 -21 -34 -21 -666 0 -640 1 -669 34 -690 20 -14 63 -8 79 10 15 17 17 78 17 675 0 644 0 657 -20 677 -28 28 -64 25 -89 -6z" fill="#fffcfc"/>
<path d="M4132 2454 l-22 -15 0 -663 c0 -661 0 -663 21 -682 20 -18 42 -19 409 -19 367 0 389 1 409 19 26 23 27 67 3 89 -16 15 -60 17 -368 19 l-349 3 -2 615 c-3 613 -3 615 -24 633 -26 21 -48 22 -77 1z" fill="#fffcfc"/>
<path d="M4380 2450 c-19 -19 -20 -33 -20 -550 0 -517 1 -531 20 -550 19 -19 33 -20 283 -20 221 0 266 2 285 16 25 18 29 60 8 90 -13 18 -30 19 -240 22 l-226 3 0 475 c0 474 -2 505 -34 526 -20 14 -56 8 -76 -12z" fill="#fffcfc"/>
<path d="M1687 1975 c-9 -9 -19 -30 -22 -48 -3 -18 -5 -209 -3 -425 3 -376 4 -394 22 -408 27 -19 70 -18 87 3 11 12 15 83 19 320 l5 304 210 -303 c116 -166 218 -310 228 -320 37 -39 108 -11 106 43 0 15 -110 180 -287 434 -265 379 -290 410 -318 413 -19 2 -38 -3 -47 -13z" fill="#fffcfc"/>
<path d="M3296 1795 c-28 -29 -28 -53 3 -127 17 -40 31 -76 31 -80 0 -5 -27 -8 -59 -8 -51 0 -62 -3 -75 -22 -21 -30 -20 -51 3 -79 18 -23 25 -24 134 -24 99 0 118 3 136 19 12 11 21 30 21 43 0 38 -100 272 -121 283 -26 14 -55 12 -73 -5z" fill="#fffcfc"/>
<path d="M5629 1800 c-31 -18 -31 -55 1 -135 16 -41 30 -78 30 -80 0 -3 -26 -5 -58 -5 -66 0 -92 -18 -92 -62 0 -48 26 -58 152 -61 102 -2 118 0 137 17 12 11 21 29 21 41 0 32 -98 268 -117 283 -20 14 -51 15 -74 2z" fill="#fffcfc"/>
<path d="M3102 1313 c-21 -18 -72 -133 -72 -162 0 -31 30 -61 60 -61 35 0 50 14 74 69 l19 41 154 0 154 0 16 -37 c8 -21 22 -46 31 -55 33 -38 102 -10 102 40 0 29 -45 140 -67 164 -15 16 -36 18 -233 18 -193 0 -220 -2 -238 -17z" fill="#fffcfc"/>
<path d="M5432 1313 c-23 -20 -72 -134 -72 -168 0 -48 70 -73 103 -37 9 10 23 34 32 55 l15 37 155 0 154 0 21 -47 c24 -54 34 -63 72 -63 28 0 58 31 58 61 0 23 -49 141 -67 162 -14 15 -39 17 -233 17 -193 0 -220 -2 -238 -17z" fill="#fffcfc"/>
<path d="M1892 788 c3 -52 4 -53 36 -56 18 -2 32 1 32 7 0 6 -11 11 -25 11 -16 0 -25 6 -25 15 0 8 9 15 20 15 11 0 20 5 20 10 0 6 -9 10 -20 10 -30 0 -24 28 8 33 21 3 19 4 -11 6 l-38 1 3 -52z" fill="#fffcfc"/>
<path d="M2110 790 c0 -54 20 -71 21 -17 l0 32 16 -32 c9 -18 19 -33 23 -33 3 0 12 17 20 38 l15 37 6 -45 6 -45 1 58 c1 31 -2 57 -7 57 -5 0 -16 -19 -26 -42 l-16 -42 -19 42 c-25 56 -40 53 -40 -8z" fill="#fffcfc"/>
<path d="M2381 788 c1 -29 4 -43 6 -30 3 13 12 22 22 22 10 0 24 7 31 15 17 20 -3 45 -36 45 -22 0 -24 -4 -23 -52z m44 22 c0 -8 -8 -16 -17 -18 -13 -2 -18 3 -18 18 0 15 5 20 18 18 9 -2 17 -10 17 -18z" fill="#fffcfc"/>
<path d="M2604 790 c1 -52 2 -55 29 -58 15 -2 27 1 27 7 0 6 -11 11 -24 11 -22 0 -25 5 -29 48 -4 44 -4 43 -3 -8z" fill="#fffcfc"/>
<path d="M2815 820 c-25 -28 -10 -71 29 -85 24 -8 31 -6 47 14 23 28 24 54 3 75 -21 22 -57 20 -79 -4z m75 -10 c16 -31 -4 -62 -38 -58 -19 2 -28 10 -30 26 -7 47 47 72 68 32z" fill="#fffcfc"/>
<path d="M3066 815 c9 -14 20 -40 24 -58 l8 -32 1 28 c1 16 10 42 22 58 11 16 16 29 10 29 -6 0 -16 -10 -22 -22 l-12 -22 -17 22 c-25 30 -34 28 -14 -3z" fill="#fffcfc"/>
<path d="M3282 788 c3 -52 4 -53 36 -56 18 -2 32 1 32 7 0 6 -11 11 -25 11 -32 0 -34 27 -2 33 l22 4 -22 2 c-35 2 -31 39 5 44 21 3 19 4 -11 6 l-38 1 3 -52z" fill="#fffcfc"/>
<path d="M3502 788 c3 -52 4 -53 36 -56 18 -2 32 1 32 7 0 6 -11 11 -25 11 -32 0 -34 27 -2 33 l22 4 -22 2 c-35 2 -31 39 5 44 21 3 19 4 -11 6 l-38 1 3 -52z" fill="#fffcfc"/>
<path d="M3890 835 c0 -15 23 -90 31 -99 4 -5 13 10 20 32 13 46 24 47 32 2 9 -43 21 -37 39 20 9 28 12 50 8 50 -5 0 -12 -16 -16 -35 -3 -19 -10 -35 -15 -35 -4 0 -11 16 -15 35 -8 46 -20 44 -36 -6 l-12 -41 -13 38 c-13 37 -23 54 -23 39z" fill="#fffcfc"/>
<path d="M4172 788 c3 -52 4 -53 36 -56 18 -2 32 1 32 7 0 6 -11 11 -25 11 -16 0 -25 6 -25 15 0 9 9 15 23 15 17 0 19 2 7 9 -8 6 -18 7 -22 5 -4 -3 -8 4 -8 15 0 14 8 21 28 24 21 3 19 4 -11 6 l-38 1 3 -52z" fill="#fffcfc"/>
<path d="M4392 788 c3 -49 5 -53 31 -56 15 -2 27 1 27 7 0 6 -9 11 -20 11 -17 0 -20 7 -20 45 0 25 -5 45 -11 45 -6 0 -9 -21 -7 -52z" fill="#fffcfc"/>
<path d="M4604 790 c1 -52 2 -55 29 -58 15 -2 27 1 27 7 0 6 -11 11 -24 11 -22 0 -25 5 -29 48 -4 44 -4 43 -3 -8z" fill="#fffcfc"/>
<path d="M4810 785 l0 -57 28 7 c36 9 46 20 37 42 -4 10 -8 27 -9 38 -1 14 -9 21 -28 23 -28 3 -28 3 -28 -53z m48 28 c2 -8 -5 -13 -17 -13 -12 0 -21 6 -21 16 0 18 31 15 38 -3z m7 -48 c0 -5 -10 -11 -22 -13 -16 -2 -23 2 -23 13 0 11 7 15 23 13 12 -2 22 -7 22 -13z" fill="#fffcfc"/>
<path d="M5032 788 c3 -52 4 -53 36 -56 18 -2 32 1 32 7 0 6 -11 11 -25 11 -16 0 -25 6 -25 15 0 8 9 15 20 15 11 0 20 5 20 10 0 6 -3 9 -7 9 -21 -3 -33 2 -33 15 0 8 12 17 28 19 21 3 19 4 -11 6 l-38 1 3 -52z" fill="#fffcfc"/>
<path d="M5250 790 c0 -27 5 -50 10 -50 6 0 10 23 10 50 0 28 -4 50 -10 50 -5 0 -10 -22 -10 -50z" fill="#fffcfc"/>
<path d="M5432 790 c1 -52 1 -53 7 -15 l6 40 23 -37 c13 -21 28 -38 33 -38 5 0 8 24 7 53 l-1 52 -7 -45 c-4 -25 -8 -40 -9 -35 -1 6 -15 26 -31 45 l-29 35 1 -55z" fill="#fffcfc"/>
<path d="M5688 829 c-45 -26 -4 -108 47 -95 30 8 37 57 8 55 -11 0 -13 -3 -5 -6 17 -7 15 -30 -3 -37 -23 -9 -45 4 -51 30 -9 35 13 57 48 50 18 -3 27 -2 23 4 -8 13 -45 12 -67 -1z" fill="#fffcfc"/>
</g>
</svg>